<?xml version="1.0" standalone="no"?>
<!DOCTYPE svg PUBLIC "-//W3C//DTD SVG 20010904//EN"
 "http://www.w3.org/TR/2001/REC-SVG-20010904/DTD/svg10.dtd">
<svg version="1.0" xmlns="http://www.w3.org/2000/svg"
 width="512.000000pt" height="512.000000pt" viewBox="0 0 512.000000 512.000000"
 preserveAspectRatio="xMidYMid meet">

<g transform="translate(0.000000,512.000000) scale(0.100000,-0.100000)"
fill="#000000" stroke="none">
<path d="M1665 5096 c-204 -66 -356 -196 -445 -381 -49 -100 -68 -181 -76
-315 -8 -152 -5 -146 -63 -153 -98 -12 -187 -84 -210 -170 -11 -42 -61 -820
-62 -970 0 -65 4 -88 25 -131 31 -63 93 -111 165 -128 30 -7 51 -17 51 -25 0
-7 -16 -282 -36 -611 -20 -328 -34 -633 -31 -677 3 -55 13 -101 30 -145 15
-35 25 -65 24 -65 -1 -1 -45 -12 -97 -24 -112 -27 -273 -101 -296 -136 -10
-16 -14 -34 -9 -54 6 -27 1 -36 -57 -89 -55 -52 -65 -58 -85 -49 -52 24 -109
-35 -177 -184 -68 -148 -81 -218 -81 -456 l0 -211 30 -37 c17 -21 46 -46 65
-56 33 -18 111 -19 2235 -19 2120 0 2201 1 2241 19 47 21 78 57 95 108 19 57
6 399 -19 488 -97 352 -356 605 -698 680 -43 10 -80 18 -81 19 -1 1 9 30 22
63 14 34 28 88 31 121 8 77 -24 668 -39 706 -6 17 -23 34 -44 42 l-33 14 0 83
c0 76 2 83 22 92 41 18 47 49 38 190 -15 217 -19 200 44 214 39 9 68 24 102
54 64 57 84 103 84 202 0 99 -48 909 -56 950 -22 104 -103 176 -216 193 l-53
7 -7 120 c-8 149 -29 237 -78 340 -89 186 -249 321 -454 384 -66 20 -87 21
-581 21 -564 0 -531 4 -542 -63 -4 -27 -1 -39 16 -56 20 -20 29 -21 336 -21
295 0 315 -1 315 -18 0 -9 -36 -53 -81 -97 -90 -89 -114 -130 -99 -169 23 -61
89 -69 142 -19 l28 27 69 -67 c73 -71 98 -80 139 -51 58 40 48 92 -35 176
l-56 57 27 31 c20 25 26 42 26 82 l0 50 93 -7 c88 -7 95 -9 153 -51 148 -105
251 -283 269 -464 20 -210 166 -2820 162 -2900 -5 -102 -16 -147 -47 -197
l-20 -33 -1276 0 c-1204 0 -1278 1 -1291 18 -28 35 -57 98 -69 151 -11 48 -3
230 71 1505 58 983 90 1472 100 1516 46 198 194 360 388 425 69 23 102 27 253
32 172 6 175 7 195 32 22 28 19 63 -8 94 -14 15 -38 17 -212 17 -177 -1 -203
-3 -266 -24z m1875 -3941 c-51 -20 -2105 -20 -2165 0 -34 11 139 13 1080 13
950 0 1115 -2 1085 -13z"/>
<path d="M1665 4431 c-118 -30 -180 -131 -154 -252 19 -86 104 -158 187 -159
31 0 32 -1 32 -45 0 -123 46 -210 133 -251 64 -29 127 -31 187 -3 92 42 129
102 137 221 l6 78 49 0 c36 0 49 -4 46 -12 -3 -7 -92 -365 -198 -796 -190
-765 -194 -784 -181 -830 25 -94 98 -153 192 -154 59 0 105 24 136 73 49 76
53 79 89 79 37 0 59 -17 97 -79 32 -51 78 -74 147 -74 68 0 114 23 147 74 50
77 52 79 93 79 41 0 43 -2 93 -79 31 -49 77 -73 136 -73 98 1 173 65 192 163
11 53 6 74 -185 837 -108 430 -196 784 -196 787 0 3 22 5 49 5 l48 0 6 -78 c8
-119 45 -179 137 -221 114 -52 255 6 300 123 6 16 13 62 17 102 l6 74 31 0
c114 1 209 126 187 245 -14 75 -44 115 -111 151 -33 18 -77 19 -930 21 -492 1
-908 -2 -925 -6z m1799 -167 c19 -18 20 -38 6 -65 -10 -19 -31 -19 -900 -19
-869 0 -890 0 -900 19 -14 27 -13 47 6 65 14 14 109 16 894 16 785 0 880 -2
894 -16z m-755 -331 c11 -49 76 -314 144 -590 l124 -503 -407 0 -407 0 104
423 c57 232 122 497 144 590 l41 167 118 0 118 0 21 -87z"/>
<path d="M1625 3375 c-50 -49 -15 -135 55 -135 41 0 80 39 80 80 0 41 -39 80
-80 80 -19 0 -40 -9 -55 -25z"/>
<path d="M3405 3375 c-16 -15 -25 -36 -25 -55 0 -19 9 -40 25 -55 15 -16 36
-25 55 -25 19 0 40 9 55 25 16 15 25 36 25 55 0 19 -9 40 -25 55 -15 16 -36
25 -55 25 -19 0 -40 -9 -55 -25z"/>
<path d="M1651 3169 c-84 -33 -59 -149 31 -149 66 0 102 80 58 128 -12 12 -25
22 -30 22 -4 0 -14 2 -22 4 -7 3 -24 0 -37 -5z"/>
<path d="M3431 3169 c-84 -33 -59 -149 31 -149 66 0 102 80 58 128 -12 12 -25
22 -30 22 -4 0 -14 2 -22 4 -7 3 -24 0 -37 -5z"/>
<path d="M1621 2924 c-36 -45 -26 -95 21 -120 79 -41 152 50 97 120 -16 20
-29 26 -59 26 -30 0 -43 -6 -59 -26z"/>
<path d="M3401 2924 c-36 -45 -26 -95 21 -120 79 -41 152 50 97 120 -16 20
-29 26 -59 26 -30 0 -43 -6 -59 -26z"/>
<path d="M1635 2045 c-184 -65 -166 -353 24 -394 69 -15 1756 -15 1821 0 154
35 209 233 96 345 -24 25 -58 46 -81 53 -28 8 -308 11 -930 11 -741 -1 -897
-3 -930 -15z m1835 -164 c14 -27 13 -47 -6 -65 -14 -14 -109 -16 -894 -16
-785 0 -880 2 -894 16 -19 18 -21 55 -4 72 9 9 223 12 900 12 867 0 888 0 898
-19z"/>
<path d="M2236 1569 c-20 -16 -26 -29 -26 -59 0 -30 6 -43 26 -59 26 -20 38
-21 334 -21 296 0 308 1 334 21 20 16 26 29 26 59 0 30 -6 43 -26 59 -26 20
-38 21 -334 21 -296 0 -308 -1 -334 -21z"/>
</g>
</svg>
